<svg width="13" height="14" viewBox="0 0 13 14" fill="none" xmlns="http://www.w3.org/2000/svg">
<g clip-path="url(#clip0_123_1140)">
<path d="M6.85184 9.64063C6.81618 9.70238 6.7649 9.75366 6.70314 9.78931C6.64138 9.82496 6.57133 9.84373 6.50002 9.84373C6.42872 9.84373 6.35866 9.82496 6.29691 9.78931C6.23515 9.75366 6.18387 9.70238 6.14821 9.64063L4.03734 5.98438C4.00168 5.92262 3.98291 5.85256 3.98291 5.78125C3.98291 5.70994 4.00168 5.63989 4.03733 5.57813C4.07299 5.51637 4.12427 5.46509 4.18603 5.42943C4.24778 5.39377 4.31784 5.375 4.38915 5.375H8.6109C8.68221 5.375 8.75226 5.39377 8.81402 5.42943C8.87578 5.46509 8.92706 5.51637 8.96271 5.57813C8.99837 5.63989 9.01714 5.70994 9.01714 5.78125C9.01714 5.85256 8.99837 5.92262 8.96271 5.98438L6.85184 9.64063Z" fill="white"/>
</g>
<defs>
<clipPath id="clip0_123_1140">
<rect width="13" height="13" fill="white" transform="translate(0 0.5)"/>
</clipPath>
</defs>
</svg>
