<svg width="38" height="38" viewBox="0 0 38 38" fill="none" xmlns="http://www.w3.org/2000/svg">
<circle cx="19" cy="19" r="18.5" fill="#0E0F10" stroke="white"/>
<path d="M17.9773 21.7273V21.6591C17.9848 20.9356 18.0606 20.3598 18.2045 19.9318C18.3485 19.5038 18.553 19.1572 18.8182 18.892C19.0833 18.6269 19.4015 18.3826 19.7727 18.1591C19.9962 18.0227 20.197 17.8617 20.375 17.6761C20.553 17.4867 20.6932 17.2689 20.7955 17.0227C20.9015 16.7765 20.9545 16.5038 20.9545 16.2045C20.9545 15.8333 20.8674 15.5114 20.6932 15.2386C20.5189 14.9659 20.286 14.7557 19.9943 14.608C19.7027 14.4602 19.3788 14.3864 19.0227 14.3864C18.7121 14.3864 18.4129 14.4508 18.125 14.5795C17.8371 14.7083 17.5966 14.911 17.4034 15.1875C17.2102 15.464 17.0985 15.8258 17.0682 16.2727H15.6364C15.6667 15.6288 15.8333 15.0777 16.1364 14.6193C16.4432 14.161 16.8466 13.8106 17.3466 13.5682C17.8504 13.3258 18.4091 13.2045 19.0227 13.2045C19.6894 13.2045 20.2689 13.3371 20.7614 13.6023C21.2576 13.8674 21.6402 14.2311 21.9091 14.6932C22.1818 15.1553 22.3182 15.6818 22.3182 16.2727C22.3182 16.6894 22.2538 17.0663 22.125 17.4034C22 17.7405 21.8182 18.0417 21.5795 18.3068C21.3447 18.572 21.0606 18.8068 20.7273 19.0114C20.3939 19.2197 20.1269 19.4394 19.9261 19.6705C19.7254 19.8977 19.5795 20.1686 19.4886 20.483C19.3977 20.7973 19.3485 21.1894 19.3409 21.6591V21.7273H17.9773ZM18.7045 25.0909C18.4242 25.0909 18.1837 24.9905 17.983 24.7898C17.7822 24.589 17.6818 24.3485 17.6818 24.0682C17.6818 23.7879 17.7822 23.5473 17.983 23.3466C18.1837 23.1458 18.4242 23.0455 18.7045 23.0455C18.9848 23.0455 19.2254 23.1458 19.4261 23.3466C19.6269 23.5473 19.7273 23.7879 19.7273 24.0682C19.7273 24.2538 19.6799 24.4242 19.5852 24.5795C19.4943 24.7348 19.3712 24.8598 19.2159 24.9545C19.0644 25.0455 18.8939 25.0909 18.7045 25.0909Z" fill="white"/>
</svg>
