<svg width="35" height="35" viewBox="0 0 35 35" fill="none" xmlns="http://www.w3.org/2000/svg">
<circle cx="17.5" cy="17.5" r="17.5" fill="#30363C"/>
<path d="M11.7477 12.946L9 10.1983L10.1983 9L12.946 11.7477H25.8611C26.3291 11.7477 26.7085 12.127 26.7085 12.595C26.7085 12.6775 26.6964 12.7595 26.6728 12.8385L24.6392 19.6174C24.5316 19.9757 24.2017 20.2212 23.8275 20.2212H13.4424V21.9159H22.7633V23.6106H12.595C12.127 23.6106 11.7477 23.2312 11.7477 22.7632V12.946ZM13.0187 27C12.3167 27 11.7477 26.4309 11.7477 25.729C11.7477 25.027 12.3167 24.4579 13.0187 24.4579C13.7207 24.4579 14.2897 25.027 14.2897 25.729C14.2897 26.4309 13.7207 27 13.0187 27ZM23.187 27C22.4849 27 21.9159 26.4309 21.9159 25.729C21.9159 25.027 22.4849 24.4579 23.187 24.4579C23.8889 24.4579 24.458 25.027 24.458 25.729C24.458 26.4309 23.8889 27 23.187 27Z" fill="white"/>
</svg>
