<svg width="15" height="18" viewBox="0 0 15 18" fill="none" xmlns="http://www.w3.org/2000/svg">
<path fill-rule="evenodd" clip-rule="evenodd" d="M4.16504 2.33329C3.70457 2.33329 3.33129 1.96019 3.33129 1.49996C3.33129 1.03973 3.70458 0.666626 4.16504 0.666626H10.835C11.2954 0.666626 11.6688 1.03973 11.6688 1.49996C11.6688 1.96019 11.2954 2.33329 10.835 2.33329V7.04715L14.5883 13.1405C15.6745 14.904 14.5024 17.3333 12.3495 17.3333H2.65047C0.497594 17.3333 -0.674481 14.904 0.411702 13.1405L4.16504 7.04715V2.33329ZM5.83252 2.33329V7.28311C5.83252 7.43738 5.78967 7.58863 5.70875 7.71996L4.40704 9.83329H10.593L9.29125 7.71996C9.21034 7.58863 9.1675 7.43738 9.1675 7.28311V2.33329H5.83252Z" fill="white"/>
</svg>
