<svg width="24" height="23" viewBox="0 0 24 23" fill="none" xmlns="http://www.w3.org/2000/svg">
<path d="M12 0.25C5.78775 0.25 0.75 5.28775 0.75 11.5C0.75 17.7122 5.78775 22.75 12 22.75C18.2122 22.75 23.25 17.7122 23.25 11.5C23.25 5.28775 18.2145 0.25 12 0.25ZM6.30075 11.878L6.348 11.8015L9.27525 7.22275C9.318 7.1575 9.41925 7.16425 9.45075 7.23625C9.939 8.332 10.362 9.6955 10.164 10.5438C10.0808 10.8925 9.849 11.365 9.588 11.8015C9.55427 11.8655 9.51747 11.9278 9.47775 11.9882C9.46848 12.0017 9.45602 12.0126 9.4415 12.0201C9.42697 12.0275 9.41083 12.0313 9.3945 12.031H6.38625C6.36831 12.0312 6.35064 12.0266 6.33511 12.0176C6.31959 12.0086 6.30677 11.9956 6.29802 11.9799C6.28926 11.9643 6.2849 11.9465 6.28538 11.9286C6.28586 11.9106 6.29117 11.8932 6.30075 11.878ZM19.344 13.453C19.3442 13.473 19.3386 13.4926 19.3278 13.5094C19.317 13.5262 19.3015 13.5394 19.2833 13.5475C19.056 13.6442 18.2798 14.002 17.958 14.4498C17.1345 15.595 16.5068 17.233 15.1005 17.233H9.237C7.158 17.233 5.475 15.5433 5.475 13.4575V13.39C5.475 13.336 5.52 13.291 5.57625 13.291H8.84325C8.9085 13.291 8.95575 13.3495 8.95125 13.4147C8.9265 13.6262 8.967 13.8445 9.06825 14.0425C9.26175 14.4362 9.6645 14.6815 10.0988 14.6815H11.7165V13.4193H10.1168C10.0981 13.4189 10.0799 13.4134 10.064 13.4036C10.0482 13.3937 10.0353 13.3797 10.0268 13.3631C10.0183 13.3465 10.0144 13.3279 10.0156 13.3092C10.0168 13.2906 10.0229 13.2726 10.0335 13.2573C10.2635 12.9296 10.4776 12.5909 10.6747 12.2425C10.8251 11.9823 10.9596 11.7134 11.0775 11.437C11.1 11.3875 11.118 11.3358 11.1382 11.2863C11.1697 11.1985 11.2013 11.1152 11.2238 11.0342C11.2463 10.9645 11.2665 10.8925 11.2845 10.825C11.3378 10.5827 11.3635 10.3351 11.361 10.087C11.361 9.98485 11.3565 9.88275 11.3475 9.781C11.343 9.67075 11.3295 9.5605 11.316 9.45025C11.307 9.3535 11.289 9.25675 11.271 9.15775C11.2456 9.01042 11.2149 8.86407 11.1787 8.719L11.1653 8.66275C11.1383 8.5615 11.1135 8.467 11.082 8.36575C10.9925 8.05768 10.8896 7.75365 10.7737 7.4545C10.7336 7.34191 10.6893 7.23084 10.641 7.1215C10.5735 6.955 10.5037 6.80425 10.4407 6.6625C10.4096 6.60191 10.3804 6.54038 10.353 6.478C10.3215 6.4105 10.29 6.343 10.2563 6.27775C10.2338 6.22825 10.2068 6.181 10.1888 6.136L9.99075 5.7715C9.96375 5.722 10.0087 5.66125 10.0627 5.677L11.3003 6.01225H11.3093L11.4713 6.0595L11.6512 6.109L11.7165 6.127V5.3935C11.7165 5.038 12 4.75 12.3533 4.75C12.5288 4.75 12.6885 4.822 12.801 4.939C12.9206 5.06002 12.9877 5.22333 12.9877 5.3935V6.48475L13.1205 6.52075C13.1295 6.52525 13.1408 6.52975 13.1498 6.5365C13.1813 6.559 13.2285 6.595 13.287 6.64C13.3342 6.676 13.3838 6.721 13.4423 6.76825C13.6272 6.91908 13.8066 7.07669 13.98 7.24075C14.1802 7.4275 14.4053 7.64575 14.6213 7.88875C14.682 7.9585 14.7405 8.026 14.8013 8.10025C14.8598 8.1745 14.925 8.2465 14.979 8.3185C15.0533 8.41525 15.1298 8.5165 15.1995 8.62225C15.231 8.67175 15.2693 8.7235 15.2985 8.773C15.3885 8.90575 15.465 9.043 15.5392 9.18025C15.5707 9.24325 15.6023 9.313 15.6293 9.3805C15.7125 9.565 15.7777 9.75175 15.8182 9.94075C15.8317 9.98125 15.8408 10.024 15.8453 10.0645V10.0735C15.8588 10.1275 15.8632 10.186 15.8677 10.2468C15.8942 10.5237 15.8604 10.8031 15.7687 11.0657C15.7395 11.1445 15.7125 11.2255 15.6765 11.3043C15.607 11.4675 15.5243 11.6248 15.429 11.7745C15.3975 11.8307 15.3592 11.8892 15.3232 11.9455C15.2827 12.004 15.24 12.0603 15.204 12.1143C15.1525 12.1852 15.0985 12.2542 15.042 12.3212C14.9925 12.3887 14.943 12.4563 14.8868 12.517C14.8131 12.6065 14.7366 12.6935 14.6572 12.778C14.6122 12.832 14.5627 12.8882 14.511 12.9377C14.4615 12.994 14.4097 13.0435 14.3647 13.0885C14.286 13.1673 14.223 13.2258 14.169 13.2775L14.0408 13.3923C14.0227 13.4098 13.9984 13.4195 13.9733 13.4193H12.9877V14.6815H14.2275C14.5042 14.6815 14.7675 14.5848 14.9813 14.4025C15.0533 14.3395 15.3705 14.065 15.7463 13.651C15.7585 13.6364 15.775 13.6262 15.7935 13.6218L19.2158 12.6318C19.2307 12.6274 19.2465 12.6267 19.2618 12.6295C19.2771 12.6324 19.2916 12.6387 19.304 12.6481C19.3165 12.6575 19.3266 12.6696 19.3335 12.6836C19.3404 12.6975 19.344 12.7129 19.344 12.7285V13.453Z" fill="white"/>
</svg>
