<svg width="24" height="23" viewBox="0 0 24 23" fill="none" xmlns="http://www.w3.org/2000/svg">
<g clip-path="url(#clip0_116_383)">
<rect x="0.5" width="22.5296" height="22.5296" rx="11.2648" fill="#212529"/>
<path d="M16.2425 16.8915C15.9611 16.8899 15.6916 16.7774 15.4927 16.5782L6.39003 7.41357C6.2051 7.19574 6.11363 6.91371 6.13551 6.6288C6.1574 6.34389 6.29087 6.07914 6.50691 5.89211C6.70067 5.72469 6.9482 5.63257 7.20427 5.63257C7.46034 5.63257 7.70787 5.72469 7.90163 5.89211L17.0578 15.056C17.1651 15.1574 17.2506 15.2796 17.309 15.4151C17.3674 15.5506 17.3975 15.6966 17.3975 15.8442C17.3975 15.9918 17.3674 16.1378 17.309 16.2734C17.2506 16.4089 17.1651 16.5311 17.0578 16.6324C16.9472 16.7294 16.8178 16.8025 16.6776 16.8471C16.5374 16.8916 16.3888 16.9068 16.2425 16.8915ZM7.20955 16.895C6.93092 16.9112 6.65693 16.8183 6.44565 16.6359C6.24499 16.4327 6.13247 16.1587 6.13247 15.8731C6.13247 15.5875 6.24499 15.3134 6.44565 15.1103L15.5849 5.9245C15.6879 5.82751 15.8091 5.75184 15.9415 5.70187C16.0739 5.65189 16.2148 5.62859 16.3562 5.6333C16.4976 5.63801 16.6367 5.67065 16.7654 5.72932C16.8942 5.788 17.0101 5.87156 17.1064 5.97519C17.4739 6.36946 17.4957 6.97635 17.1571 7.39596L7.96288 16.6359C7.75378 16.8162 7.48413 16.9084 7.20955 16.895Z" fill="white"/>
</g>
<defs>
<clipPath id="clip0_116_383">
<rect x="0.5" width="22.5296" height="22.5296" rx="11.2648" fill="white"/>
</clipPath>
</defs>
</svg>
