<svg width="20" height="20" viewBox="0 0 20 20" fill="none" xmlns="http://www.w3.org/2000/svg">
<path d="M5.10336 9.5625C5.10347 9.46015 5.12376 9.35882 5.16308 9.26432C5.2024 9.16982 5.25997 9.08401 5.3325 9.01179C5.40503 8.93957 5.49109 8.88236 5.58576 8.84345C5.68043 8.80453 5.78184 8.78467 5.88419 8.785L7.17836 8.78917C7.38464 8.78939 7.5824 8.87149 7.72818 9.01743C7.87397 9.16337 7.95586 9.36122 7.95586 9.5675V14.4625C8.10169 14.4192 8.28919 14.3733 8.49419 14.325C8.63642 14.2916 8.76319 14.2111 8.85395 14.0966C8.9447 13.9821 8.99412 13.8403 8.99419 13.6942V7.62167C8.99441 7.41545 9.07637 7.21773 9.22211 7.07184C9.36785 6.92594 9.56548 6.84377 9.77169 6.84333H11.0684C11.2748 6.84333 11.4728 6.92533 11.6187 7.0713C11.7647 7.21727 11.8467 7.41524 11.8467 7.62167V13.2575C11.8467 13.2575 12.1717 13.1258 12.4875 12.9925C12.6048 12.9427 12.7049 12.8595 12.7752 12.7532C12.8456 12.647 12.8832 12.5224 12.8834 12.395V5.675C12.8836 5.46864 12.9657 5.2708 13.1116 5.12488C13.2575 4.97896 13.4553 4.89689 13.6617 4.89666H14.9584C15.1648 4.89666 15.3628 4.97867 15.5087 5.12463C15.6547 5.2706 15.7367 5.46857 15.7367 5.675V11.2083C16.8609 10.3925 18 9.4125 18.9034 8.23333C19.0347 8.06238 19.1217 7.8616 19.1565 7.64888C19.1914 7.43616 19.1732 7.21811 19.1034 7.01416C18.4916 5.23096 17.344 3.68022 15.8175 2.57391C14.291 1.46759 12.4601 0.859704 10.575 0.833331C5.49252 0.765831 1.29169 4.91583 1.29336 10.0008C1.28833 11.6096 1.70802 13.1912 2.51002 14.5858C2.62053 14.7767 2.78321 14.932 2.97896 15.0336C3.1747 15.1351 3.39537 15.1787 3.61502 15.1592C3.86086 15.1375 4.16586 15.1067 4.52919 15.0642C4.68735 15.0463 4.8334 14.9709 4.93946 14.8522C5.04553 14.7336 5.10417 14.58 5.10419 14.4208L5.10336 9.5625ZM5.07502 17.4133C6.48497 18.4397 8.15862 19.0422 9.89924 19.15C11.6399 19.2578 13.3751 18.8665 14.9009 18.0219C16.4267 17.1774 17.6797 15.9148 18.5126 14.3826C19.3455 12.8504 19.7236 11.1122 19.6025 9.3725C16.255 14.3675 10.0742 16.7017 5.07502 17.4133Z" fill="white"/>
</svg>
