<svg width="39" height="36" viewBox="0 0 39 36" fill="none" xmlns="http://www.w3.org/2000/svg">
<g clip-path="url(#clip0_112_126)">
<g clip-path="url(#clip1_112_126)">
<path d="M17.9563 1.26603L5.7597 8.31066C5.29601 8.57836 4.91095 8.96347 4.64332 9.4272C4.37569 9.89094 4.23492 10.417 4.23511 10.9524L4.24274 25.0572C4.24309 25.5917 4.38397 26.1169 4.65128 26.5799C4.91859 27.0427 5.30292 27.4273 5.76573 27.6949L17.9766 34.7537C18.4401 35.0214 18.966 35.1623 19.5011 35.1623C20.0364 35.1623 20.5623 35.0214 21.0257 34.7537L33.2225 27.7112C33.6861 27.4435 34.0712 27.0585 34.3388 26.5946C34.6063 26.1309 34.7472 25.6049 34.7469 25.0695L34.7393 10.9647C34.7391 10.4302 34.598 9.90512 34.3307 9.4422C34.0635 8.97927 33.6792 8.59477 33.2163 8.32722L21.0055 1.26813C20.5419 1.00051 20.0162 0.859619 19.4809 0.859619C18.9456 0.859619 18.4199 1.00051 17.9563 1.26813V1.26603Z" fill="white"/>
<path d="M13.9305 29.9863C13.9493 29.8943 13.9904 29.8084 14.0503 29.7363C17.6988 23.5455 21.3479 17.3548 24.9976 11.1645C25.0483 11.0785 25.0954 10.9902 25.1385 10.9132C25.1064 10.8572 25.0699 10.8688 25.0388 10.8688C23.4796 10.8743 21.9202 10.8843 20.36 10.8825C20.2933 10.8813 20.2279 10.9005 20.1725 10.9377C20.1171 10.9748 20.0744 11.028 20.0501 11.0901C18.8739 13.0353 17.6961 14.9799 16.5169 16.924C14.0189 21.0455 11.5206 25.1668 9.02207 29.2882C8.99998 29.3247 8.97683 29.3605 8.95712 29.398C8.91297 29.4832 8.86277 29.4966 8.77314 29.4445C8.38541 29.2156 7.99351 28.994 7.5816 28.7572L18.7006 10.9243C18.6767 10.8517 18.6274 10.8699 18.5896 10.8685C17.9937 10.8507 17.3976 10.8249 16.8022 10.8196C15.9658 10.7949 15.1323 10.9292 14.346 11.2155C13.6299 11.4807 13.0214 11.9747 12.6148 12.621C10.5833 15.7897 8.54403 18.9535 6.49706 22.1124C6.46499 22.1623 6.43083 22.2112 6.39772 22.2606C6.28048 22.2606 6.29778 22.1639 6.28702 22.0963C6.27664 21.9945 6.27422 21.8922 6.2797 21.7901C6.2797 18.2961 6.29179 14.8022 6.26891 11.3086C6.25055 11.0075 6.32291 10.7079 6.47671 10.4485C6.63052 10.189 6.85868 9.98172 7.13162 9.85337C9.8183 8.32169 12.4876 6.75848 15.1656 5.21129C16.3609 4.52076 17.5598 3.83679 18.7464 3.13181C18.9696 2.98206 19.2322 2.9021 19.501 2.9021C19.7697 2.9021 20.0325 2.98206 20.2556 3.13181C22.4374 4.41219 24.6386 5.66287 26.8316 6.92513C28.4856 7.87754 30.1406 8.82831 31.7962 9.77741C31.9147 9.84497 32.0301 9.91724 32.1492 9.98374C32.3428 10.0866 32.5028 10.2428 32.6106 10.4338C32.7183 10.6247 32.769 10.8426 32.757 11.0615C32.7601 14.8621 32.7601 18.6626 32.757 22.4633C32.7647 22.5568 32.7545 22.6508 32.7269 22.7406C32.5955 22.8676 32.5479 22.7251 32.5001 22.6576C32.303 22.3802 32.126 22.0882 31.9429 21.8011C30.4757 19.5046 29.0037 17.2112 27.5268 14.9208C27.0306 14.1467 26.5279 13.3757 26.037 12.5984C25.9223 12.417 25.9016 12.4144 25.787 12.6092C25.046 13.8629 24.3055 15.1168 23.5655 16.371C23.525 16.4407 23.5074 16.5214 23.5156 16.6017C23.5237 16.6821 23.5571 16.7577 23.6108 16.8178C24.2209 17.8023 24.83 18.7875 25.4379 19.7735L28.5546 24.8151C28.9752 25.4964 29.3964 26.1772 29.8185 26.8572C29.8968 26.9484 29.9409 27.0641 29.943 27.1842C29.8587 27.3518 29.6827 27.3989 29.5364 27.4753C29.2961 27.6486 29.0321 27.7865 28.7523 27.8844C28.6014 27.8469 28.548 27.7108 28.4766 27.5992C27.5116 26.0941 26.559 24.5814 25.6003 23.0726C24.6144 21.5217 23.6331 19.965 22.643 18.4157C22.516 18.217 22.4956 18.2157 22.3764 18.4157C21.5149 19.8649 20.6654 21.3208 19.802 22.7684C19.7577 22.8362 19.7361 22.9163 19.7398 22.9971C19.7437 23.078 19.7729 23.1556 19.8233 23.2189C20.9864 25.0116 22.1227 26.8201 23.2735 28.6217C23.5944 29.1238 23.9177 29.624 24.233 30.1299C24.2944 30.2281 24.3786 30.3261 24.3229 30.4591C24.0208 30.6942 23.6948 30.8968 23.3502 31.0637C22.2753 31.6892 21.2 32.3137 20.1239 32.9373C19.9516 33.0487 19.7507 33.1079 19.5455 33.1079C19.3405 33.1079 19.1397 33.0487 18.9673 32.9373C17.3825 32.0205 15.7947 31.1078 14.2041 30.1991C14.0945 30.1556 13.9996 30.0817 13.9305 29.9863Z" fill="#2D374B"/>
<path d="M32.6802 22.7787C32.6826 22.6849 32.6873 22.5913 32.6873 22.4978C32.6873 18.7058 32.6885 14.9139 32.6911 11.1223C32.7045 10.8923 32.6504 10.6634 32.5357 10.4637C32.4209 10.264 32.2504 10.1021 32.045 9.998C28.0631 7.71534 24.0842 5.42751 20.1081 3.13449C19.9292 3.01801 19.7203 2.95575 19.5067 2.95519C19.2931 2.95463 19.0839 3.01581 18.9043 3.13134C16.6963 4.41462 14.4854 5.69458 12.2718 6.9712C10.4957 7.99932 8.71984 9.02772 6.94396 10.0564C6.75429 10.1548 6.59703 10.3058 6.49113 10.4914C6.38525 10.677 6.33521 10.8892 6.34701 11.1025C6.35611 14.741 6.36124 18.3795 6.36247 22.0181C6.36247 22.0989 6.32963 22.1891 6.40034 22.2606C5.97976 22.961 5.51766 23.6338 5.07474 24.319C4.85289 24.6622 4.63016 25.0048 4.40656 25.3467C4.37081 25.4014 4.32954 25.4518 4.25883 25.5493C4.25357 25.4347 4.24805 25.3713 4.24805 25.3082C4.24805 20.5099 4.24893 15.7119 4.25068 10.9136C4.23896 10.381 4.37417 9.85554 4.64144 9.39477C4.90871 8.934 5.29769 8.55576 5.76578 8.30152C7.3098 7.38467 8.87434 6.502 10.4286 5.60144C11.74 4.84204 13.047 4.07684 14.3576 3.31614C15.5799 2.60642 16.7898 1.87541 18.0329 1.20433C18.509 0.939219 19.0476 0.806823 19.5923 0.820972C20.1371 0.835122 20.6679 0.995297 21.1296 1.28476C22.1285 1.85149 23.1231 2.42872 24.1191 3.00123C25.056 3.54044 25.9927 4.08001 26.9295 4.61992C27.7926 5.11691 28.6561 5.61334 29.5199 6.10927C30.3762 6.60117 31.2328 7.09281 32.0893 7.58418C32.4657 7.80051 32.8418 8.01711 33.2159 8.23738C33.6288 8.47102 33.9839 8.79466 34.2547 9.18427C34.5255 9.5739 34.705 10.0195 34.78 10.488C34.7976 10.6233 34.8031 10.7599 34.7962 10.8962C34.7962 15.6177 34.7968 20.3393 34.798 25.0609C34.8005 25.5095 34.7037 25.9531 34.5146 26.36C34.3255 26.7668 34.0487 27.1267 33.7041 27.414C33.5074 27.5639 33.2959 27.6935 33.0732 27.8007C31.7938 28.547 30.5129 29.2904 29.2299 30.0305C27.8668 30.8191 26.5028 31.6064 25.1384 32.3923C23.8275 33.1518 22.5181 33.9141 21.2098 34.6791C20.8841 34.8983 20.5176 35.0495 20.1321 35.1237C19.4917 35.2487 18.8282 35.1642 18.2395 34.8829C17.5871 34.533 16.9515 34.1534 16.3083 33.7849C15.4446 33.2893 14.5812 32.7928 13.7184 32.2953C13.4746 32.1551 13.2306 32.0157 12.9865 31.8771C12.8969 31.8261 12.8357 31.7743 12.9056 31.6573C13.2284 31.1166 13.5462 30.5728 13.8674 30.0311C13.8787 30.0113 13.9076 30.0022 13.9283 29.9877C14.2276 30.1275 14.5174 30.2868 14.7958 30.4648C16.2052 31.2708 17.6125 32.081 19.0175 32.8949C19.1799 32.9975 19.3684 33.0511 19.5605 33.0491C19.7525 33.0469 19.9399 32.9894 20.1 32.8833C21.4346 32.1003 22.7759 31.3285 24.1144 30.5528C24.1807 30.5144 24.2485 30.4795 24.3158 30.4431C24.4419 30.2819 24.6106 30.1589 24.8026 30.0881C26.0118 29.3952 27.2119 28.6886 28.4208 27.9976C28.5218 27.94 28.6127 27.8511 28.7441 27.8661L29.9287 27.1801C30.0008 27.0286 30.1552 26.9798 30.2846 26.9051C30.8804 26.561 31.4709 26.2075 32.072 25.8744C32.246 25.7829 32.3897 25.643 32.4862 25.4718C32.5827 25.3004 32.6276 25.1049 32.6158 24.9087C32.6218 24.3057 32.6158 23.7024 32.6186 23.0991C32.5977 22.9884 32.6198 22.8739 32.6802 22.7787Z" fill="#98B0C5"/>
<path d="M32.6811 22.7784C32.6842 23.527 32.7007 24.2768 32.6839 25.0244C32.6885 25.1995 32.6446 25.3725 32.557 25.5242C32.4693 25.676 32.3415 25.8004 32.1874 25.8839C31.4335 26.3108 30.6932 26.7619 29.9326 27.1772C29.6301 26.6252 29.2806 26.0995 28.95 25.5632C27.2326 22.7797 25.5134 19.9978 23.7921 17.2174C23.6892 17.0508 23.5947 16.8778 23.4796 16.7203C23.4421 16.6752 23.4216 16.6184 23.4216 16.5597C23.4216 16.501 23.4421 16.444 23.4796 16.3989C23.8905 15.7117 24.2945 15.0207 24.7011 14.3307L25.8298 12.4161C25.8499 12.3705 25.8851 12.3334 25.9295 12.3109C26.1258 12.6135 26.3238 12.9186 26.5215 13.2241C27.7089 15.0729 28.896 16.9216 30.0829 18.7705C30.8878 20.0248 31.6925 21.2792 32.4973 22.5338C32.5415 22.6268 32.6039 22.7101 32.6811 22.7784Z" fill="#28A0F0"/>
<path d="M28.7485 27.8631C28.2583 28.1849 27.7384 28.4585 27.2332 28.7569C26.3171 29.2955 25.3952 29.824 24.4761 30.3566C24.4235 30.3864 24.3709 30.4142 24.3202 30.4428C24.3086 30.3578 24.2719 30.2782 24.2151 30.2139C23.3965 28.9275 22.5778 27.6413 21.7592 26.3554C21.0865 25.2994 20.4117 24.2444 19.7351 23.1905C19.6893 23.1359 19.6627 23.0677 19.6595 22.9964C19.6562 22.9253 19.6766 22.8548 19.7172 22.7963C20.6216 21.2731 21.5223 19.7477 22.4192 18.2199C22.4405 18.1847 22.4576 18.1436 22.5104 18.1323C22.584 18.1489 22.6019 18.2225 22.6368 18.2775C24.2665 20.8446 25.8963 23.4117 27.526 25.9793C27.8727 26.5258 28.2179 27.0735 28.5666 27.619C28.611 27.7113 28.673 27.7938 28.7485 27.8631Z" fill="#28A0F0"/>
</g>
</g>
<defs>
<clipPath id="clip0_112_126">
<rect width="38" height="34.36" fill="white" transform="translate(0.983398 0.819946)"/>
</clipPath>
<clipPath id="clip1_112_126">
<rect width="31.4967" height="34.36" fill="white" transform="translate(4.23511 0.819946)"/>
</clipPath>
</defs>
</svg>
