<svg width="18" height="18" viewBox="0 0 18 18" fill="none" xmlns="http://www.w3.org/2000/svg">
<path d="M17.626 13.4982L11.2675 1.80957C10.2459 0.0896862 7.7555 0.087401 6.73252 1.80957L0.374304 13.4982C-0.670047 15.2556 0.594347 17.4811 2.64125 17.4811H15.3585C17.4037 17.4811 18.6704 15.2574 17.626 13.4982ZM9 15.3717C8.41858 15.3717 7.94531 14.8984 7.94531 14.317C7.94531 13.7356 8.41858 13.2623 9 13.2623C9.58141 13.2623 10.0547 13.7356 10.0547 14.317C10.0547 14.8984 9.58141 15.3717 9 15.3717ZM10.0547 11.1529C10.0547 11.7343 9.58141 12.2076 9 12.2076C8.41858 12.2076 7.94531 11.7343 7.94531 11.1529V5.8795C7.94531 5.29808 8.41858 4.82481 9 4.82481C9.58141 4.82481 10.0547 5.29808 10.0547 5.8795V11.1529Z" fill="#C8144A"/>
</svg>
